<mxfile host="app.diagrams.net" modified="2022-03-13T12:59:45.313Z" agent="5.0 (Windows NT 10.0; Win64; x64) AppleWebKit/537.36 (KHTML, like Gecko) Chrome/96.0.4664.174 YaBrowser/22.1.5.810 Yowser/2.5 Safari/537.36" etag="Lo-8PnHBa4WSd7cnQmoW" version="17.1.0" type="github">
  <diagram name="Page-1" id="c4acf3e9-155e-7222-9cf6-157b1a14988f">
    <mxGraphModel dx="1234" dy="579" grid="1" gridSize="10" guides="1" tooltips="1" connect="1" arrows="1" fold="1" page="1" pageScale="1" pageWidth="850" pageHeight="1100" background="none" math="0" shadow="0">
      <root>
        <mxCell id="0" />
        <mxCell id="1" parent="0" />
        <mxCell id="SGego25w1yVU1YXGOMxT-32" style="edgeStyle=orthogonalEdgeStyle;rounded=0;orthogonalLoop=1;jettySize=auto;html=1;exitX=0.5;exitY=0.5;exitDx=0;exitDy=0;exitPerimeter=0;entryX=0.099;entryY=0.96;entryDx=0;entryDy=0;entryPerimeter=0;" edge="1" parent="1" source="SGego25w1yVU1YXGOMxT-8" target="SGego25w1yVU1YXGOMxT-31">
          <mxGeometry relative="1" as="geometry" />
        </mxCell>
        <mxCell id="SGego25w1yVU1YXGOMxT-8" value="администратор&lt;br&gt;" style="shape=umlActor;verticalLabelPosition=bottom;verticalAlign=top;html=1;outlineConnect=0;" vertex="1" parent="1">
          <mxGeometry x="193" y="460" width="30" height="60" as="geometry" />
        </mxCell>
        <mxCell id="SGego25w1yVU1YXGOMxT-34" style="edgeStyle=orthogonalEdgeStyle;rounded=0;orthogonalLoop=1;jettySize=auto;html=1;exitX=0.5;exitY=0.5;exitDx=0;exitDy=0;exitPerimeter=0;entryX=0.703;entryY=1.052;entryDx=0;entryDy=0;entryPerimeter=0;" edge="1" parent="1" source="SGego25w1yVU1YXGOMxT-9" target="SGego25w1yVU1YXGOMxT-31">
          <mxGeometry relative="1" as="geometry" />
        </mxCell>
        <mxCell id="SGego25w1yVU1YXGOMxT-9" value="пользователь" style="shape=umlActor;verticalLabelPosition=bottom;verticalAlign=top;html=1;outlineConnect=0;" vertex="1" parent="1">
          <mxGeometry x="610" y="451" width="30" height="60" as="geometry" />
        </mxCell>
        <mxCell id="SGego25w1yVU1YXGOMxT-15" value="" style="group" vertex="1" connectable="0" parent="1">
          <mxGeometry x="330" y="79" width="190" height="250" as="geometry" />
        </mxCell>
        <mxCell id="SGego25w1yVU1YXGOMxT-6" value="" style="points=[[0.25,0,0],[0.5,0,0],[0.75,0,0],[1,0.25,0],[1,0.5,0],[1,0.75,0],[0.75,1,0],[0.5,1,0],[0.25,1,0],[0,0.75,0],[0,0.5,0],[0,0.25,0]];shape=mxgraph.bpmn.task;whiteSpace=wrap;rectStyle=rounded;size=10;taskMarker=abstract;" vertex="1" parent="SGego25w1yVU1YXGOMxT-15">
          <mxGeometry width="190" height="250" as="geometry" />
        </mxCell>
        <mxCell id="SGego25w1yVU1YXGOMxT-11" value="Бд пользователей" style="shape=datastore;whiteSpace=wrap;html=1;labelPosition=center;verticalLabelPosition=bottom;align=center;verticalAlign=top;" vertex="1" parent="SGego25w1yVU1YXGOMxT-15">
          <mxGeometry x="45" y="40" width="100" height="70" as="geometry" />
        </mxCell>
        <mxCell id="SGego25w1yVU1YXGOMxT-13" value="Бд оценок" style="shape=datastore;whiteSpace=wrap;html=1;labelPosition=center;verticalLabelPosition=bottom;align=center;verticalAlign=top;" vertex="1" parent="SGego25w1yVU1YXGOMxT-15">
          <mxGeometry x="45" y="140" width="100" height="70" as="geometry" />
        </mxCell>
        <mxCell id="SGego25w1yVU1YXGOMxT-14" value="СУБД" style="text;html=1;strokeColor=none;fillColor=none;align=center;verticalAlign=middle;whiteSpace=wrap;rounded=0;" vertex="1" parent="SGego25w1yVU1YXGOMxT-15">
          <mxGeometry x="65" width="60" height="30" as="geometry" />
        </mxCell>
        <mxCell id="SGego25w1yVU1YXGOMxT-19" value="" style="shape=flexArrow;endArrow=classic;html=1;rounded=0;exitX=1;exitY=0.25;exitDx=0;exitDy=0;exitPerimeter=0;entryX=0;entryY=0.75;entryDx=0;entryDy=0;entryPerimeter=0;" edge="1" parent="1" source="SGego25w1yVU1YXGOMxT-18" target="SGego25w1yVU1YXGOMxT-6">
          <mxGeometry width="50" height="50" relative="1" as="geometry">
            <mxPoint x="265" y="210" as="sourcePoint" />
            <mxPoint x="330" y="210" as="targetPoint" />
          </mxGeometry>
        </mxCell>
        <mxCell id="SGego25w1yVU1YXGOMxT-20" value="загрузка" style="edgeLabel;html=1;align=center;verticalAlign=middle;resizable=0;points=[];" vertex="1" connectable="0" parent="SGego25w1yVU1YXGOMxT-19">
          <mxGeometry x="-0.2605" y="-1" relative="1" as="geometry">
            <mxPoint y="-15" as="offset" />
          </mxGeometry>
        </mxCell>
        <mxCell id="SGego25w1yVU1YXGOMxT-21" value="" style="shape=flexArrow;endArrow=classic;startArrow=classic;html=1;rounded=0;exitX=1.001;exitY=0.628;exitDx=0;exitDy=0;exitPerimeter=0;entryX=0.009;entryY=0.9;entryDx=0;entryDy=0;entryPerimeter=0;" edge="1" parent="1" source="SGego25w1yVU1YXGOMxT-18" target="SGego25w1yVU1YXGOMxT-6">
          <mxGeometry width="100" height="100" relative="1" as="geometry">
            <mxPoint x="350" y="420" as="sourcePoint" />
            <mxPoint x="330" y="254" as="targetPoint" />
          </mxGeometry>
        </mxCell>
        <mxCell id="SGego25w1yVU1YXGOMxT-23" value="данные" style="text;html=1;strokeColor=none;fillColor=none;align=center;verticalAlign=middle;whiteSpace=wrap;rounded=0;" vertex="1" parent="1">
          <mxGeometry x="270" y="312" width="60" height="30" as="geometry" />
        </mxCell>
        <mxCell id="SGego25w1yVU1YXGOMxT-30" value="" style="points=[[0.25,0,0],[0.5,0,0],[0.75,0,0],[1,0.25,0],[1,0.5,0],[1,0.75,0],[0.75,1,0],[0.5,1,0],[0.25,1,0],[0,0.75,0],[0,0.5,0],[0,0.25,0]];shape=mxgraph.bpmn.task;whiteSpace=wrap;rectStyle=rounded;size=10;taskMarker=abstract;" vertex="1" parent="1">
          <mxGeometry x="570" y="190" width="110" height="122" as="geometry" />
        </mxCell>
        <mxCell id="SGego25w1yVU1YXGOMxT-31" value="системный интерфейс" style="points=[[0.25,0,0],[0.5,0,0],[0.75,0,0],[1,0.25,0],[1,0.5,0],[1,0.75,0],[0.75,1,0],[0.5,1,0],[0.25,1,0],[0,0.75,0],[0,0.5,0],[0,0.25,0]];shape=mxgraph.bpmn.task;whiteSpace=wrap;rectStyle=rounded;size=10;taskMarker=abstract;" vertex="1" parent="1">
          <mxGeometry x="140" y="390" width="690" height="30" as="geometry" />
        </mxCell>
        <mxCell id="SGego25w1yVU1YXGOMxT-38" value="" style="group" vertex="1" connectable="0" parent="1">
          <mxGeometry x="729" y="190" width="120" height="120" as="geometry" />
        </mxCell>
        <mxCell id="SGego25w1yVU1YXGOMxT-35" value="" style="points=[[0.25,0,0],[0.5,0,0],[0.75,0,0],[1,0.25,0],[1,0.5,0],[1,0.75,0],[0.75,1,0],[0.5,1,0],[0.25,1,0],[0,0.75,0],[0,0.5,0],[0,0.25,0]];shape=mxgraph.bpmn.task;whiteSpace=wrap;rectStyle=rounded;size=10;taskMarker=abstract;" vertex="1" parent="SGego25w1yVU1YXGOMxT-38">
          <mxGeometry width="120" height="120" as="geometry" />
        </mxCell>
        <mxCell id="SGego25w1yVU1YXGOMxT-36" value="" style="verticalLabelPosition=bottom;sketch=0;aspect=fixed;html=1;verticalAlign=top;strokeColor=none;align=center;outlineConnect=0;shape=mxgraph.citrix.tower_server;" vertex="1" parent="SGego25w1yVU1YXGOMxT-38">
          <mxGeometry x="35.14999999999998" y="47" width="49.71" height="65" as="geometry" />
        </mxCell>
        <mxCell id="SGego25w1yVU1YXGOMxT-37" value="внешние системы" style="text;html=1;strokeColor=none;fillColor=none;align=center;verticalAlign=middle;whiteSpace=wrap;rounded=0;" vertex="1" parent="SGego25w1yVU1YXGOMxT-38">
          <mxGeometry x="30" y="8" width="60" height="30" as="geometry" />
        </mxCell>
        <mxCell id="SGego25w1yVU1YXGOMxT-39" value="портал" style="rounded=0;whiteSpace=wrap;html=1;" vertex="1" parent="1">
          <mxGeometry x="580" y="200" width="90" height="30" as="geometry" />
        </mxCell>
        <mxCell id="SGego25w1yVU1YXGOMxT-40" value="средство формировние отчётностей" style="rounded=0;whiteSpace=wrap;html=1;" vertex="1" parent="1">
          <mxGeometry x="580" y="260" width="90" height="40" as="geometry" />
        </mxCell>
        <mxCell id="SGego25w1yVU1YXGOMxT-42" value="" style="group" vertex="1" connectable="0" parent="1">
          <mxGeometry x="140" y="241" width="120" height="102" as="geometry" />
        </mxCell>
        <mxCell id="SGego25w1yVU1YXGOMxT-18" value="" style="points=[[0.25,0,0],[0.5,0,0],[0.75,0,0],[1,0.25,0],[1,0.5,0],[1,0.75,0],[0.75,1,0],[0.5,1,0],[0.25,1,0],[0,0.75,0],[0,0.5,0],[0,0.25,0]];shape=mxgraph.bpmn.task;whiteSpace=wrap;rectStyle=rounded;size=10;taskMarker=abstract;" vertex="1" parent="SGego25w1yVU1YXGOMxT-42">
          <mxGeometry width="120" height="102" as="geometry" />
        </mxCell>
        <mxCell id="SGego25w1yVU1YXGOMxT-24" value="средство&lt;br&gt;администирование комментариев" style="rounded=0;whiteSpace=wrap;html=1;" vertex="1" parent="SGego25w1yVU1YXGOMxT-42">
          <mxGeometry x="10" y="46" width="100" height="41" as="geometry" />
        </mxCell>
        <mxCell id="SGego25w1yVU1YXGOMxT-29" value="админ панель" style="text;html=1;strokeColor=none;fillColor=none;align=center;verticalAlign=middle;whiteSpace=wrap;rounded=0;" vertex="1" parent="SGego25w1yVU1YXGOMxT-42">
          <mxGeometry x="20" y="8" width="80" height="30" as="geometry" />
        </mxCell>
        <mxCell id="SGego25w1yVU1YXGOMxT-43" value="" style="shape=flexArrow;endArrow=classic;html=1;rounded=0;entryX=0.5;entryY=1;entryDx=0;entryDy=0;entryPerimeter=0;" edge="1" parent="1" target="SGego25w1yVU1YXGOMxT-18">
          <mxGeometry width="50" height="50" relative="1" as="geometry">
            <mxPoint x="200" y="390" as="sourcePoint" />
            <mxPoint x="230" y="360" as="targetPoint" />
          </mxGeometry>
        </mxCell>
        <mxCell id="SGego25w1yVU1YXGOMxT-44" value="" style="shape=flexArrow;endArrow=classic;html=1;rounded=0;entryX=0.5;entryY=1;entryDx=0;entryDy=0;entryPerimeter=0;exitX=0.701;exitY=-0.052;exitDx=0;exitDy=0;exitPerimeter=0;" edge="1" parent="1" source="SGego25w1yVU1YXGOMxT-31" target="SGego25w1yVU1YXGOMxT-30">
          <mxGeometry width="50" height="50" relative="1" as="geometry">
            <mxPoint x="590" y="392" as="sourcePoint" />
            <mxPoint x="640" y="342" as="targetPoint" />
          </mxGeometry>
        </mxCell>
        <mxCell id="SGego25w1yVU1YXGOMxT-45" value="" style="shape=flexArrow;endArrow=classic;html=1;rounded=0;exitX=1;exitY=0.5;exitDx=0;exitDy=0;entryX=0;entryY=0.75;entryDx=0;entryDy=0;entryPerimeter=0;" edge="1" parent="1" source="SGego25w1yVU1YXGOMxT-40" target="SGego25w1yVU1YXGOMxT-35">
          <mxGeometry width="50" height="50" relative="1" as="geometry">
            <mxPoint x="699" y="380" as="sourcePoint" />
            <mxPoint x="719" y="280" as="targetPoint" />
          </mxGeometry>
        </mxCell>
        <mxCell id="SGego25w1yVU1YXGOMxT-46" value="документация" style="edgeLabel;html=1;align=center;verticalAlign=middle;resizable=0;points=[];" vertex="1" connectable="0" parent="SGego25w1yVU1YXGOMxT-45">
          <mxGeometry x="0.5271" y="-9" relative="1" as="geometry">
            <mxPoint y="13" as="offset" />
          </mxGeometry>
        </mxCell>
        <mxCell id="SGego25w1yVU1YXGOMxT-48" value="" style="shape=flexArrow;endArrow=classic;html=1;rounded=0;exitX=0.5;exitY=1;exitDx=0;exitDy=0;" edge="1" parent="1" source="SGego25w1yVU1YXGOMxT-39" target="SGego25w1yVU1YXGOMxT-40">
          <mxGeometry width="50" height="50" relative="1" as="geometry">
            <mxPoint x="679" y="380" as="sourcePoint" />
            <mxPoint x="729" y="330" as="targetPoint" />
          </mxGeometry>
        </mxCell>
        <mxCell id="SGego25w1yVU1YXGOMxT-49" value="" style="shape=flexArrow;endArrow=classic;html=1;rounded=0;entryX=1.003;entryY=0.565;entryDx=0;entryDy=0;entryPerimeter=0;exitX=0;exitY=0.25;exitDx=0;exitDy=0;exitPerimeter=0;" edge="1" parent="1" source="SGego25w1yVU1YXGOMxT-30" target="SGego25w1yVU1YXGOMxT-6">
          <mxGeometry width="50" height="50" relative="1" as="geometry">
            <mxPoint x="640" y="160" as="sourcePoint" />
            <mxPoint x="690" y="110" as="targetPoint" />
          </mxGeometry>
        </mxCell>
        <mxCell id="SGego25w1yVU1YXGOMxT-50" value="" style="shape=flexArrow;endArrow=classic;startArrow=classic;html=1;rounded=0;entryX=0.008;entryY=0.636;entryDx=0;entryDy=0;entryPerimeter=0;exitX=1;exitY=0.75;exitDx=0;exitDy=0;exitPerimeter=0;" edge="1" parent="1" source="SGego25w1yVU1YXGOMxT-6" target="SGego25w1yVU1YXGOMxT-30">
          <mxGeometry width="100" height="100" relative="1" as="geometry">
            <mxPoint x="560" y="440" as="sourcePoint" />
            <mxPoint x="660" y="340" as="targetPoint" />
          </mxGeometry>
        </mxCell>
        <mxCell id="SGego25w1yVU1YXGOMxT-52" value="создание записи" style="text;html=1;strokeColor=none;fillColor=none;align=center;verticalAlign=middle;whiteSpace=wrap;rounded=0;" vertex="1" parent="1">
          <mxGeometry x="520" y="170" width="60" height="30" as="geometry" />
        </mxCell>
        <mxCell id="SGego25w1yVU1YXGOMxT-54" value="данные" style="text;html=1;strokeColor=none;fillColor=none;align=center;verticalAlign=middle;whiteSpace=wrap;rounded=0;" vertex="1" parent="1">
          <mxGeometry x="518" y="280" width="60" height="30" as="geometry" />
        </mxCell>
      </root>
    </mxGraphModel>
  </diagram>
</mxfile>
